<svg xmlns="http://www.w3.org/2000/svg" width="1024" height="576" viewBox="0 0 1024 576">
<rect width="1024" height="576" fill="#0f1720"/>
<rect x="66" y="58" width="260" height="486" rx="28" fill="#1c2733" stroke="#33475b" stroke-width="3"/>
<rect x="698" y="58" width="260" height="486" rx="28" fill="#1c2733" stroke="#33475b" stroke-width="3"/>
<rect x="82" y="105" width="228" height="50" rx="10" fill="#2a3542" stroke-width="2" stroke-dasharray="6 4" stroke="#d9824a"/><circle cx="108" cy="130" r="15" fill="#d9824a"/><rect x="134" y="119" width="105" height="8" rx="4" fill="#5b6f84"/><rect x="134" y="135" width="67" height="8" rx="4" fill="#5b6f84"/><rect x="82" y="167" width="228" height="50" rx="10" fill="#24303c" stroke-width="2" stroke="#4c6378"/><circle cx="108" cy="192" r="15" fill="#d9824a"/><rect x="134" y="181" width="90" height="8" rx="4" fill="#5b6f84"/><rect x="134" y="197" width="52" height="8" rx="4" fill="#5b6f84"/><rect x="82" y="229" width="228" height="50" rx="10" fill="#2a3542" stroke-width="2" stroke-dasharray="6 4" stroke="#d9824a"/><circle cx="108" cy="254" r="15" fill="#d9824a"/><rect x="134" y="243" width="120" height="8" rx="4" fill="#5b6f84"/><rect x="134" y="259" width="75" height="8" rx="4" fill="#5b6f84"/><rect x="82" y="291" width="228" height="50" rx="10" fill="#24303c" stroke-width="2" stroke="#4c6378"/><circle cx="108" cy="316" r="15" fill="#d9824a"/><rect x="134" y="305" width="82" height="8" rx="4" fill="#5b6f84"/><rect x="134" y="321" width="60" height="8" rx="4" fill="#5b6f84"/><rect x="82" y="353" width="228" height="50" rx="10" fill="#2a3542" stroke-width="2" stroke-dasharray="6 4" stroke="#d9824a"/><circle cx="108" cy="378" r="15" fill="#d9824a"/><rect x="134" y="367" width="97" height="8" rx="4" fill="#5b6f84"/><rect x="134" y="383" width="45" height="8" rx="4" fill="#5b6f84"/><rect x="82" y="415" width="228" height="50" rx="10" fill="#24303c" stroke-width="2" stroke="#4c6378"/><circle cx="108" cy="440" r="15" fill="#d9824a"/><rect x="134" y="429" width="112" height="8" rx="4" fill="#5b6f84"/><rect x="134" y="445" width="67" height="8" rx="4" fill="#5b6f84"/><rect x="82" y="477" width="228" height="50" rx="10" fill="#2a3542" stroke-width="2" stroke-dasharray="6 4" stroke="#d9824a"/><circle cx="108" cy="502" r="15" fill="#d9824a"/><rect x="134" y="491" width="75" height="8" rx="4" fill="#5b6f84"/><rect x="134" y="507" width="57" height="8" rx="4" fill="#5b6f84"/><rect x="714" y="105" width="228" height="50" rx="10" fill="#1f3a35" stroke="#3ddc97" stroke-width="2"/><circle cx="740" cy="130" r="15" fill="#3ddc97"/><rect x="766" y="119" width="105" height="8" rx="4" fill="#5b6f84"/><rect x="766" y="135" width="67" height="8" rx="4" fill="#5b6f84"/><rect x="714" y="167" width="228" height="50" rx="10" fill="#1f3a35" stroke="#3ddc97" stroke-width="2"/><circle cx="740" cy="192" r="15" fill="#3ddc97"/><rect x="766" y="181" width="90" height="8" rx="4" fill="#5b6f84"/><rect x="766" y="197" width="52" height="8" rx="4" fill="#5b6f84"/><rect x="714" y="229" width="228" height="50" rx="10" fill="#1f3a35" stroke="#3ddc97" stroke-width="2"/><circle cx="740" cy="254" r="15" fill="#3ddc97"/><rect x="766" y="243" width="120" height="8" rx="4" fill="#5b6f84"/><rect x="766" y="259" width="75" height="8" rx="4" fill="#5b6f84"/><rect x="714" y="291" width="228" height="50" rx="10" fill="#1f3a35" stroke="#3ddc97" stroke-width="2"/><circle cx="740" cy="316" r="15" fill="#3ddc97"/><rect x="766" y="305" width="82" height="8" rx="4" fill="#5b6f84"/><rect x="766" y="321" width="60" height="8" rx="4" fill="#5b6f84"/><rect x="714" y="353" width="228" height="50" rx="10" fill="#1f3a35" stroke="#3ddc97" stroke-width="2"/><circle cx="740" cy="378" r="15" fill="#3ddc97"/><rect x="766" y="367" width="97" height="8" rx="4" fill="#5b6f84"/><rect x="766" y="383" width="45" height="8" rx="4" fill="#5b6f84"/><rect x="714" y="415" width="228" height="50" rx="10" fill="#1f3a35" stroke="#3ddc97" stroke-width="2"/><circle cx="740" cy="440" r="15" fill="#3ddc97"/><rect x="766" y="429" width="112" height="8" rx="4" fill="#5b6f84"/><rect x="766" y="445" width="67" height="8" rx="4" fill="#5b6f84"/><rect x="714" y="477" width="228" height="50" rx="10" fill="#1f3a35" stroke="#3ddc97" stroke-width="2"/><circle cx="740" cy="502" r="15" fill="#3ddc97"/><rect x="766" y="491" width="75" height="8" rx="4" fill="#5b6f84"/><rect x="766" y="507" width="57" height="8" rx="4" fill="#5b6f84"/>
<rect x="86" y="44" width="238" height="30" rx="6" fill="#0f1720" stroke="#33475b" stroke-width="2"/>
<text x="98" y="65" font-family="sans-serif" font-size="15" fill="#c9d6e3">RecyclerView + ComposeView</text>
<rect x="718" y="44" width="110" height="30" rx="6" fill="#0f1720" stroke="#33475b" stroke-width="2"/>
<text x="730" y="65" font-family="sans-serif" font-size="15" fill="#c9d6e3">LazyColumn</text>
<g transform="rotate(6 270 190)"><rect x="204" y="174" width="146" height="34" rx="6" fill="#d9824a"/><text x="214" y="197" font-family="monospace" font-weight="bold" font-size="17" fill="#111">var isPinned</text></g>
<g transform="rotate(-5 270 340)"><rect x="204" y="322" width="146" height="34" rx="6" fill="#d9824a"/><text x="214" y="345" font-family="monospace" font-weight="bold" font-size="17" fill="#111">var isPinned</text></g>
<path d="M490 194 h36 m-14 -14 l14 14 l-14 14" stroke="#3ddc97" stroke-width="7" fill="none" stroke-linecap="round" stroke-linejoin="round"/>
<text x="400" y="272" font-family="sans-serif" font-size="15" fill="#c9d6e3">agent tokens / session</text>
<rect x="400" y="285" width="224" height="20" rx="10" fill="#d9824a"/>
<rect x="400" y="314" width="224" height="20" rx="10" fill="#2a3542"/><rect x="400" y="314" width="150" height="20" rx="10" fill="#3ddc97"/>
<rect x="376" y="365" width="272" height="58" rx="8" fill="#16222c" stroke="#2e4a40"/>
<text x="390" y="400" font-family="monospace" font-size="15" fill="#3ddc97">content = { uiState -> ... }</text>
</svg>
